<svg xmlns="http://www.w3.org/2000/svg" viewBox="0 0 128 128" width="128" height="128">
  <defs>
    <clipPath id="bg-clip">
      <rect x="4" y="4" width="120" height="120" rx="16"/>
    </clipPath>
  </defs>
  <rect x="4" y="4" width="120" height="120" rx="16" fill="#4285F4"/>
  <g clip-path="url(#bg-clip)">
    <!-- PC Monitor -->
    <rect x="18" y="16" width="52" height="38" rx="4" fill="white"/>
    <rect x="23" y="21" width="42" height="28" rx="1.5" fill="#5B9BF7"/>
    <text x="27" y="33" font-family="'Avenir Next', 'Avenir', 'Nunito Sans', 'Montserrat', 'Trebuchet MS', sans-serif" font-weight="700" font-size="12" fill="rgba(255,255,255,0.8)">k</text>
    <line x1="44" y1="54" x2="44" y2="62" stroke="white" stroke-width="6"/>
    <line x1="31" y1="62" x2="57" y2="62" stroke="white" stroke-width="6" stroke-linecap="round"/>
    <!-- Smartphone -->
    <rect x="68" y="64" width="38" height="52" rx="5" fill="white"/>
    <rect x="73" y="69" width="28" height="36" rx="1.5" fill="#5B9BF7"/>
    <text x="76" y="80.5" font-family="'Avenir Next', 'Avenir', 'Nunito Sans', 'Montserrat', 'Trebuchet MS', sans-serif" font-weight="700" font-size="11" fill="rgba(255,255,255,0.8)">k</text>
    <line x1="80" y1="109" x2="96" y2="109" stroke="#5B9BF7" stroke-width="3" stroke-linecap="round"/>
    <!-- Separator outlines -->
    <path d="M 74.1,104.7 A 39,39 0 0 1 27.4,53.6 L 20.8,51.2 L 41.4,46.1 L 50.8,62.2 L 44.3,59.8 A 21,21 0 0 0 69.5,87.3 Z" fill="#4285F4" stroke="#4285F4" stroke-width="5" stroke-linejoin="round"/>
    <path d="M 53.9,29.3 A 39,39 0 0 1 100.6,80.4 L 107.2,82.8 L 86.6,87.9 L 77.2,71.8 L 83.7,74.2 A 21,21 0 0 0 58.5,46.7 Z" fill="#4285F4" stroke="#4285F4" stroke-width="5" stroke-linejoin="round"/>
    <!-- Arrow fills -->
    <path d="M 74.1,104.7 A 39,39 0 0 1 27.4,53.6 L 20.8,51.2 L 41.4,46.1 L 50.8,62.2 L 44.3,59.8 A 21,21 0 0 0 69.5,87.3 Z" fill="#FFD54F"/>
    <path d="M 53.9,29.3 A 39,39 0 0 1 100.6,80.4 L 107.2,82.8 L 86.6,87.9 L 77.2,71.8 L 83.7,74.2 A 21,21 0 0 0 58.5,46.7 Z" fill="#FFD54F"/>
  </g>
</svg>