<svg width="128" height="128" viewBox="0 0 128 128" fill="none" xmlns="http://www.w3.org/2000/svg">
<rect width="128" height="128" rx="19" fill="#3D81F3"/>
<rect x="24" y="11" width="80" height="107" rx="9" fill="white"/>
<rect x="31" y="18" width="65" height="81" rx="7" fill="#689EED"/>
<rect x="45" y="102" width="38" height="8" rx="4" fill="#5B9BF7"/>
<path d="M50.3896 87C48.8857 87 48.1338 86.248 48.1338 84.7441V33.7617C48.1338 32.2578 48.8857 31.5059 50.3896 31.5059H56.4053C57.9092 31.5059 58.6611 32.2578 58.6611 33.7617V61.396C58.6611 62.3986 58.611 63.4012 58.5107 64.4038H58.6611L70.5796 49.064C71.3817 48.0363 72.3592 47.5225 73.5122 47.5225H79.6782C81.9842 47.5225 82.3727 48.4499 80.8438 50.3047L69.4893 64.0278L82.6484 84.2178C83.8516 86.0726 83.4631 87 81.4829 87H75.0537C73.8005 87 72.7728 86.3483 71.9707 85.0449L63.436 71.3218L58.6611 77.0742V84.7441C58.6611 86.248 57.9092 87 56.4053 87H50.3896Z" fill="#DBE8FD"/>
</svg>
